<svg xmlns="http://www.w3.org/2000/svg" viewBox="0 0 105 25">
<path d="M32.255 3.134c.895 0 1.567-.804 1.567-1.609 0-.804-.672-1.494-1.567-1.494-.783 0-1.455.69-1.455 1.61-.112.804.56 1.493 1.455 1.493zm19.919 0c.895 0 1.567-.804 1.567-1.609 0-.804-.672-1.494-1.567-1.494-.783 0-1.455.69-1.455 1.61 0 .804.672 1.493 1.455 1.493zm50.916 5.287c-.56 0-1.007-.46-1.007-1.034 0-.575.448-1.034 1.007-1.034.56 0 1.007.46 1.007 1.034 0 .575-.447 1.034-1.007 1.034zm0-1.953c-.56 0-.895.46-.895.919 0 .46.336.92.895.92.56 0 .895-.46.895-.92s-.447-.92-.895-.92zm.224 1.034l.224.345h-.224l-.224-.345h-.224v.345h-.224v-1.15h.448c.224 0 .448.115.448.345 0 .345-.112.46-.224.46zm-.224-.46h-.224v.345h.224c.112 0 .224-.115.224-.115 0-.23-.112-.23-.224-.23zm-76.766-.689c-1.007 0-2.238.69-3.357 2.068V6.697l-.224-.23-3.916.23v.46c.447 0 .895.23 1.23.46.448.23.672.804.672 1.38v7.24c0 .575-.224 1.034-.671 1.15-.336.114-.672.114-1.12.23v.459h6.267v-.46c-.447 0-1.23-.115-1.566-.345-.448-.23-.672-.574-.672-1.149V9.111c.336-.575 1.231-1.61 2.462-1.61 0 .346-.224.576-.224.805 0 .805.56 1.265 1.343 1.265.783 0 1.343-.69 1.343-1.61 0-.804-.783-1.608-1.567-1.608zm4.364 11.148c-.335.115-.671.115-1.119.23v.46h5.707v-.46c-.335 0-.67-.115-1.119-.345-.447-.23-.671-.69-.671-1.149V6.812l-.224-.23-4.14.23v.46c.447 0 1.119.23 1.455.46.447.23.67.69.67 1.264v7.241c.113.575-.111 1.034-.559 1.264zm22.829-1.379V6.697l-.224-.23-4.14.23v.46c.447 0 1.119.23 1.454.46.448.23.672.69.672 1.264v7.241c0 .46-.224 1.034-.672 1.15-.335.114-.671.114-1.119.23v.459h5.707v-.46c-.335 0-.671-.115-1.119-.345-.335 0-.56-.46-.56-1.034zm14.659.115v-5.862c0-2.413-1.007-4.022-3.357-4.022-2.126 0-3.021 1.149-4.029 2.068V6.697l-.223-.23-3.917.345v.46c.448 0 .895.23 1.231.46.448.23.671.804.671 1.379v7.24c0 .576-.223 1.035-.671 1.15-.336.115-.671.115-1.119.23v.46h5.819v-.46a1.86 1.86 0 0 1-1.12-.345c-.447-.23-.67-.574-.67-1.149V9.341c.223-.575 1.23-1.724 3.133-1.724 1.007 0 2.014.92 2.014 2.758v6.092c0 .575-.224 1.034-.671 1.15-.336.114-.672.114-1.12.23v.459h5.82v-.46c-.448 0-.784-.115-1.12-.23-.447-.46-.67-.804-.67-1.379zm12.645.805c-.783 0-1.119-.92-1.119-1.265 0-.804.112-3.448.112-5.632 0-3.333-1.79-3.792-4.252-3.792-1.903 0-4.029 1.149-4.029 2.643 0 .69.336 1.264 1.12 1.264.894 0 1.454-.574 1.454-1.034 0-.575-.224-1.15-.224-1.494.224-.23.56-.805 1.455-.805 2.014 0 2.126 2.07 2.126 2.529v1.38c-1.007.574-2.686 1.033-4.14 1.608-1.231.46-2.462 1.15-2.462 3.218 0 1.61 1.119 2.644 2.91 2.644 1.454 0 2.797-.69 3.692-1.724h.112c.448 1.15 1.007 1.724 2.126 1.724 1.567 0 2.462-.92 2.574-3.218h-.56c0 1.034 0 1.954-.895 1.954zm-3.357-.92c-.56.805-1.119 1.38-2.462 1.38-1.007 0-1.678-.69-1.678-2.07 0-2.298 1.678-2.988 4.14-3.792v4.482zM46.803 8.651c.671 0 1.007-.46 1.007-1.264 0-.69-.56-1.264-1.12-1.264a4.23 4.23 0 0 0-2.797 1.034c-1.343-.804-2.91-.804-2.91-.804-2.461 0-4.364 1.379-4.364 3.678 0 1.494 1.007 2.643 2.798 3.333v.115c-.783.344-2.238.804-2.238 2.068 0 1.495 1.678 1.954 2.574 2.3v.229c-2.574.115-3.917 1.264-3.917 2.643 0 1.954 1.455 3.104 5.371 3.104 4.253 0 6.155-1.84 6.155-4.138 0-2.184-1.678-3.333-3.133-3.448-.56 0-2.015-.115-2.798-.115-1.23 0-2.686 0-2.686-1.264 0-.575.448-.805.896-1.035h1.454c2.015 0 4.14-1.379 4.14-3.563 0-1.379-.559-2.183-1.23-2.758a2.84 2.84 0 0 1 1.567-.46c.112 1.035.335 1.61 1.23 1.61zm-2.574 9.77c1.119.345 1.23 1.15 1.23 1.724 0 1.954-1.454 2.988-3.804 2.988-2.686 0-3.693-1.264-3.693-2.299 0-1.609.672-2.298 2.462-2.643 2.238.115 3.245.23 3.805.23zm-3.245-5.172c-1.231 0-2.015-1.38-2.015-3.218 0-1.725.448-3.104 2.015-3.104 1.566 0 2.126 1.494 2.126 3.218 0 1.61-.672 3.104-2.126 3.104zm60.651 1.839c-.895 1.494-1.566 2.298-3.469 2.298-2.685 0-3.693-2.298-3.693-5.631v-.23h7.386v-.23c0-2.529-1.23-4.827-4.588-4.827-3.245 0-5.148 2.873-5.148 5.976 0 3.333 1.679 6.092 5.484 6.092 2.126 0 3.693-1.265 4.588-3.104l-.56-.344zm-4.476-8.16c1.903 0 2.238 2.068 2.238 3.907h-4.924c0-2.299 1.12-3.908 2.686-3.908zm-82.473 9.194c-1.566 1.494-3.58 2.414-6.043 2.414-2.238 0-4.252-.805-5.819-2.299C1.258 14.743.251 12.559.251 9.801c0-2.759.783-4.943 2.35-6.552C4.279 1.525 6.405.606 8.755.606c2.238 0 4.365.804 6.155 2.643 1.455 1.495 2.35 3.793 2.35 6.207 0 2.643-.783 4.827-2.574 6.666zM8.756.951C5.285.95 3.16 4.514 3.16 9.686c0 4.482 1.79 8.62 5.595 8.62 3.805 0 5.596-4.023 5.596-8.735 0-4.138-1.567-8.62-5.596-8.62zm81.465 14.022c-.112.92-.224 1.954-1.455 1.954-1.454 0-1.902-.92-1.902-2.414V7.732h3.357V6.697h-3.357V2.79l-2.238.23v3.792h-2.462v1.035h2.462v7.126c0 2.298 1.007 3.448 3.021 3.448 1.79 0 3.022-1.61 3.134-3.448h-.56z" data-reactid="9"></path>
</svg>
